# Blender v2.78 (sub 0) OBJ File: 'pyramid.blend'
# www.blender.org
mtllib pyramid.mtl
o Cube.001
v 0.610897 0.229493 0.610897
v 0.920401 -0.229493 0.920401
v -0.610896 0.229493 -0.610897
v 0.610897 0.229493 -0.610896
v 0.920401 -0.229493 -0.920401
v -0.610897 0.229493 0.610896
v -0.920401 -0.229493 0.920401
v -0.920401 -0.229493 -0.920401
vn 0.0000 1.0000 0.0000
vn 0.8291 0.5591 0.0000
vn 0.0000 -1.0000 0.0000
vn 0.0000 0.5591 -0.8291
vn -0.8291 0.5591 -0.0000
vn -0.0000 0.5591 0.8291
usemtl Material
s off
f 4//1 3//1 6//1 1//1
f 4//2 1//2 2//2 5//2
f 5//3 2//3 7//3 8//3
f 3//4 4//4 5//4 8//4
f 6//5 3//5 8//5 7//5
f 1//6 6//6 7//6 2//6
